<svg width="218" height="58" viewBox="0 0 218 58" fill="none" xmlns="http://www.w3.org/2000/svg">
<path fill-rule="evenodd" clip-rule="evenodd" d="M54.6083 36.7643C49.881 38.809 46.702 42.8227 43.5723 44.7917C23.7899 57.2719 20.1003 22.1787 54.6083 36.7643Z" fill="#689F38"/>
<path fill-rule="evenodd" clip-rule="evenodd" d="M25.9698 46.1067C30.1536 42.8049 33.8267 39.0941 40.3166 37.837C42.952 37.322 43.5285 37.0343 46.3287 37.0494H46.2958C47.4158 37.1706 47.8606 37.3523 48.8818 37.6552C48.0088 37.5947 48.6348 37.6704 47.597 37.4583C45.0933 36.9737 42.8532 37.731 40.4319 38.2762C33.662 39.7908 30.483 43.7439 25.8051 47.3335L25.9698 46.1218V46.1067Z" fill="#558B2F"/>
<path fill-rule="evenodd" clip-rule="evenodd" d="M38.3096 38.3824C38.7378 38.4127 39.1661 38.4733 39.6273 38.549C41.851 38.9277 42.411 38.8822 44.5688 39.7153H44.5523C45.3924 40.1242 45.6724 40.412 46.3642 40.9572C45.7053 40.6392 46.1666 40.8815 45.4253 40.412C43.6464 39.2912 41.6369 39.2155 39.545 38.9277C39.108 38.8616 38.6684 38.8111 38.2272 38.7762C38.3066 38.6588 38.3359 38.5185 38.3096 38.3824ZM33.5328 40.3968H33.5987C36.2342 40.8512 36.893 40.7906 39.4626 41.7903L39.4297 41.7751C40.4344 42.2749 40.7474 42.6082 41.571 43.2443C40.8133 42.8656 41.3404 43.1686 40.4674 42.6082C38.359 41.2753 35.9706 41.1996 33.5163 40.8512H33.4669C33.5466 40.7117 33.57 40.5507 33.5328 40.3968ZM41.0768 38.0795C41.2895 37.9016 41.4929 37.7146 41.6863 37.5191C42.6581 36.5649 43.0205 36.368 43.564 35.2775V35.2926C43.6793 34.8383 43.597 34.6565 43.5146 34.2324C43.4158 34.5656 43.4652 34.3233 43.4487 34.7474C43.3993 35.7622 42.2628 36.5649 41.3074 37.4434C41.0969 37.6342 40.8771 37.8162 40.6486 37.9886C40.8133 37.9886 40.9615 38.0189 41.0603 38.0795H41.0768ZM35.0153 40.0182L35.0482 39.9879C36.4318 38.6248 36.9095 38.3521 37.7825 36.7769V36.7921C38.0296 36.1408 37.9637 35.853 37.9801 35.2018C37.7825 35.7167 37.8978 35.3532 37.766 35.9742C37.486 37.4888 35.9541 38.5945 34.6364 39.8364L34.6035 39.8516C34.7549 39.8709 34.8975 39.9286 35.0153 40.0182Z" fill="#558B2F"/>
<path fill-rule="evenodd" clip-rule="evenodd" d="M52.1943 21.3433C47.8622 23.2214 44.9468 26.8868 42.0807 28.6891C23.9454 40.1395 20.5687 7.96942 52.1943 21.3433Z" fill="#689F38"/>
<path fill-rule="evenodd" clip-rule="evenodd" d="M25.9533 29.9005C29.7912 26.8713 33.1514 23.4937 39.1141 22.3275C41.519 21.858 42.0461 21.6005 44.5992 21.6156H44.5827C45.6204 21.7216 46.0157 21.8882 46.9546 22.176C46.1475 22.1003 46.724 22.176 45.7687 21.9943C43.4791 21.5399 41.4202 22.2366 39.213 22.7213C33.0032 24.1147 30.0877 27.7497 25.8051 31.0364L25.9533 29.9156V29.9005Z" fill="#558B2F"/>
<path fill-rule="evenodd" clip-rule="evenodd" d="M37.2784 22.8344C37.6757 22.8709 38.0713 22.9214 38.4644 22.9858C40.5233 23.3342 41.0175 23.2887 43.0105 24.0612H42.9941C43.7682 24.4398 44.0153 24.6973 44.6412 25.1971C44.0483 24.8942 44.4765 25.1365 43.7847 24.6973C42.154 23.6674 40.3092 23.6068 38.4149 23.3342C38.0107 23.2742 37.6041 23.2287 37.196 23.1979C37.2717 23.0903 37.3011 22.9607 37.2784 22.8344ZM32.8805 24.6822H32.9464C35.3842 25.0911 35.9771 25.0457 38.3326 25.9544H38.2832C39.2056 26.4088 39.5021 26.7117 40.2598 27.3024C39.535 26.9541 40.0292 27.2116 39.2385 26.7117C37.3113 25.5001 35.1206 25.4092 32.864 25.0911H32.8475C32.9154 24.9643 32.9329 24.8196 32.8969 24.6822H32.8805ZM39.7986 22.5617C39.994 22.3983 40.1809 22.2265 40.3586 22.0468C41.2481 21.1683 41.594 20.9865 42.0881 19.9869V20.0021C42.187 19.5931 42.1046 19.4265 42.0387 19.0327C41.9564 19.3356 41.9893 19.1236 41.9728 19.5022C41.9234 20.4413 40.9022 21.1683 40.0292 21.971C39.8344 22.1461 39.631 22.3129 39.4197 22.4709C39.568 22.4709 39.6997 22.5163 39.7986 22.5617ZM34.2476 24.3338L34.2806 24.3035C35.5489 23.0464 35.9936 22.8041 36.7843 21.3652V21.3803C37.0149 20.7745 36.949 20.517 36.9654 19.9263C36.8007 20.3807 36.8996 20.0626 36.7843 20.6382C36.5042 22.0013 35.1371 23.0313 33.9017 24.1672L33.8852 24.1824C34.0335 24.2126 34.1653 24.2581 34.2476 24.3338Z" fill="#558B2F"/>
<path fill-rule="evenodd" clip-rule="evenodd" d="M49.7924 5.92813C45.8557 7.63962 43.2038 10.9717 40.6013 12.5924C24.1296 23.0128 21.0494 -6.21895 49.7924 5.92813Z" fill="#689F38"/>
<path fill-rule="evenodd" clip-rule="evenodd" d="M25.9462 13.715C29.4382 10.9584 32.5019 7.8838 37.9046 6.82358C40.0954 6.39949 40.5731 6.15716 42.8956 6.1723C43.8344 6.26318 44.2133 6.42978 45.0533 6.68727C44.3286 6.62668 44.8392 6.68726 43.9827 6.52066C41.8908 6.11172 40.0295 6.74785 38.0199 7.18708C32.3702 8.4442 29.7182 11.746 25.8309 14.7449L25.9627 13.715H25.9462Z" fill="#558B2F"/>
<path fill-rule="evenodd" clip-rule="evenodd" d="M36.2219 7.27823C36.5863 7.31578 36.949 7.36631 37.3091 7.4297C39.1704 7.73261 39.6316 7.70232 41.4435 8.39904H41.427C42.1353 8.73225 42.3494 8.97458 42.9424 9.42896C42.3823 9.15634 42.7777 9.36838 42.1517 8.97459C40.6693 8.03553 38.9892 7.97495 37.2597 7.73261C36.8936 7.67907 36.5255 7.63865 36.1561 7.61144C36.2223 7.51178 36.2458 7.39297 36.2219 7.27823ZM32.2358 8.95944H32.3017C34.5089 9.33809 35.0525 9.29265 37.1938 10.1105H37.1608C37.9844 10.5195 38.2644 10.7921 38.9562 11.3222C38.2974 11.0193 38.7586 11.2616 38.0174 10.8072C36.2714 9.68645 34.2783 9.62586 32.2358 9.33809H32.1864C32.2505 9.22106 32.268 9.08708 32.2358 8.95944ZM38.5115 7.0359C38.695 6.89223 38.8709 6.7406 39.0386 6.58152C39.8457 5.76364 40.1587 5.59703 40.6034 4.70342C40.7022 4.33991 40.6199 4.17331 40.5705 3.82495C40.4716 4.11272 40.521 3.90068 40.5046 4.24904C40.4552 5.09721 39.5163 5.76364 38.7256 6.49064C38.552 6.64955 38.3706 6.80116 38.1821 6.94502C38.3138 6.94502 38.4291 6.99046 38.5115 7.0359ZM33.4877 8.64137L33.5206 8.61108C34.6736 7.47513 35.0525 7.24794 35.7937 5.94539C35.9913 5.41528 35.9584 5.18809 35.9584 4.64283C35.7937 5.06692 35.876 4.764 35.7937 5.27896C35.5301 6.53608 34.2783 7.45999 33.1582 8.48991V8.50506C33.2812 8.5265 33.3952 8.57894 33.4877 8.65652V8.64137Z" fill="#558B2F"/>
<path fill-rule="evenodd" clip-rule="evenodd" d="M0 32.9929C3.93672 34.6892 6.58865 38.0213 9.19117 39.6571C25.6628 50.0624 28.743 20.8307 0 32.9929Z" fill="#689F38"/>
<path fill-rule="evenodd" clip-rule="evenodd" d="M23.8357 40.7775C20.3438 38.021 17.2965 34.9312 11.8773 33.8861C9.68661 33.4469 9.20893 33.2197 6.88643 33.2348H6.91938C5.96402 33.3257 5.60164 33.4772 4.74512 33.7347C5.48634 33.6741 4.95925 33.7347 5.83224 33.5832C7.90767 33.1591 9.78544 33.7952 11.795 34.2496C17.4283 35.5067 20.0802 38.7934 23.9675 41.7923L23.8357 40.7775Z" fill="#558B2F"/>
<path fill-rule="evenodd" clip-rule="evenodd" d="M13.5706 34.3298C13.2008 34.3669 12.8326 34.4174 12.467 34.4812C10.6058 34.7841 10.161 34.7538 8.34914 35.4506C7.65733 35.7989 7.42673 36.0261 6.85022 36.4805C7.39378 36.223 7.01494 36.4199 7.64086 36.0261C9.12331 35.1022 10.8034 35.0416 12.5165 34.7993C12.8879 34.7453 13.2616 34.7049 13.6365 34.6781C13.5603 34.5765 13.5308 34.4513 13.5542 34.3298H13.5706ZM17.5403 36.011H17.4909C15.2837 36.3896 14.7401 36.3442 12.5988 37.1772H12.6153C11.7917 37.5861 11.5117 37.8588 10.8364 38.3889C11.4952 38.086 11.034 38.3283 11.7588 37.8588C13.5048 36.7531 15.5143 36.6774 17.5403 36.3896H17.5897C17.5256 36.2726 17.5081 36.1386 17.5403 36.011ZM11.2646 34.0874C11.0868 33.9434 10.9164 33.7918 10.754 33.633C9.93042 32.8152 9.63393 32.6637 9.18919 31.7549C9.09036 31.3914 9.15625 31.24 9.22214 30.8765C9.30449 31.1794 9.27155 30.9673 9.28802 31.3157C9.32097 32.1639 10.2763 32.8303 11.067 33.5573L11.6105 34.0117C11.4905 34.0124 11.3722 34.0383 11.2646 34.0874ZM16.3049 35.708L16.272 35.6777C15.119 34.5266 14.7237 34.3146 13.9989 33.012C13.8013 32.4668 13.8342 32.2396 13.8342 31.6944C13.9989 32.1184 13.9001 31.8155 13.9989 32.3456C14.246 33.5876 15.5143 34.5115 16.6179 35.5414L16.6344 35.5717C16.5131 35.5888 16.3993 35.6359 16.3049 35.708Z" fill="#558B2F"/>
<path fill-rule="evenodd" clip-rule="evenodd" d="M2.83679 15.3315C6.29583 16.8158 8.60186 19.7239 10.8914 21.1627C25.3041 30.2806 27.989 4.69903 2.83679 15.3315Z" fill="#689F38"/>
<path fill-rule="evenodd" clip-rule="evenodd" d="M23.706 22.1457C20.6423 19.7223 17.9739 17.0263 13.2465 16.1024C11.3194 15.7389 10.9076 15.5269 8.86508 15.542H8.89802C8.07444 15.6177 7.74501 15.7541 7.00378 15.9964C7.64618 15.9358 7.18497 15.9964 7.94267 15.8449C9.75455 15.4814 11.4017 16.0418 13.1642 16.4205C18.1057 17.5261 20.4117 20.419 23.8213 23.0393L23.706 22.1305V22.1457Z" fill="#558B2F"/>
<path fill-rule="evenodd" clip-rule="evenodd" d="M14.7223 16.5016C14.3965 16.5352 14.0723 16.5807 13.7505 16.6379C12.1198 16.9105 11.7245 16.8803 10.1267 17.4861H10.1596C9.53373 17.789 9.33607 17.9859 8.84192 18.3948C9.3196 18.1525 8.97369 18.3343 9.51726 18.0011C10.8185 17.168 12.2845 17.1226 13.7999 16.9105C14.1222 16.8636 14.4464 16.8282 14.7717 16.8045C14.7075 16.7154 14.6839 16.6066 14.7058 16.5016H14.7223ZM18.1813 17.9708L18.1319 17.9859C16.2047 18.3191 15.7435 18.2737 13.8493 19.0007H13.8987C13.174 19.349 12.9434 19.5914 12.3339 20.0609C12.9104 19.7883 12.4986 20.0003 13.1575 19.6065C14.6893 18.622 16.4353 18.5615 18.2143 18.304H18.2472C18.1936 18.2 18.1819 18.0819 18.2143 17.9708H18.1813ZM12.6963 16.2896C12.5415 16.1647 12.3931 16.0333 12.2515 15.8958C11.5433 15.1839 11.2632 15.0476 10.8844 14.26C10.7856 13.9268 10.8515 13.8056 10.9009 13.4875C10.9832 13.7299 10.9503 13.5481 10.9668 13.8662C10.9997 14.6084 11.8233 15.1839 12.5151 15.8352L13.0092 16.229C12.9012 16.2264 12.794 16.2472 12.6963 16.2896ZM17.1107 17.7133L17.0777 17.683C16.0894 16.6834 15.7271 16.4865 15.1011 15.3505C14.9035 14.881 14.9529 14.6689 14.9364 14.1994C15.1011 14.5781 15.0023 14.3054 15.1011 14.7598C15.3153 15.8655 16.4189 16.6682 17.3742 17.5618L17.4072 17.5921C17.298 17.6064 17.1953 17.6483 17.1107 17.7133Z" fill="#558B2F"/>
<path d="M26.0801 1.8081C26.0801 1.49477 25.9447 1.19428 25.7038 0.972729C25.4628 0.751176 25.136 0.626709 24.7953 0.626709C24.4545 0.626709 24.1277 0.751176 23.8868 0.972729C23.6459 1.19428 23.5105 1.49477 23.5105 1.8081V55.9853C23.5105 56.2986 23.6459 56.5991 23.8868 56.8207C24.1277 57.0422 24.4545 57.1667 24.7953 57.1667C25.136 57.1667 25.4628 57.0422 25.7038 56.8207C25.9447 56.5991 26.0801 56.2986 26.0801 55.9853V1.8081Z" fill="#33691E"/>
<path d="M73.9684 16.5567C75.5417 16.5567 76.7551 16.7301 77.6084 17.0767C78.4617 17.3967 79.1951 17.7434 79.8084 18.1167C80.1284 18.3034 80.3817 18.4501 80.5684 18.5567C80.7817 18.6367 80.9817 18.6767 81.1684 18.6767C81.4351 18.6767 81.6217 18.5301 81.7284 18.2367C81.8617 17.9434 81.9684 17.5034 82.0484 16.9167H82.9684C82.9417 17.4234 82.9017 18.0367 82.8484 18.7567C82.8217 19.4501 82.7951 20.3701 82.7684 21.5167C82.7684 22.6634 82.7684 24.1701 82.7684 26.0367H81.8484C81.7417 24.6501 81.4217 23.3034 80.8884 21.9967C80.3551 20.6901 79.5951 19.6234 78.6084 18.7967C77.6484 17.9434 76.4617 17.5167 75.0484 17.5167C73.7684 17.5167 72.7151 17.8767 71.8884 18.5967C71.0617 19.3167 70.6484 20.3167 70.6484 21.5967C70.6484 22.6634 70.9151 23.5834 71.4484 24.3567C71.9817 25.1034 72.7551 25.8367 73.7684 26.5567C74.8084 27.2767 76.0617 28.1434 77.5284 29.1567C78.8084 29.9834 79.9551 30.8101 80.9684 31.6367C81.9817 32.4634 82.7951 33.3967 83.4084 34.4367C84.0217 35.4767 84.3284 36.7167 84.3284 38.1567C84.3284 39.9167 83.8617 41.3701 82.9284 42.5167C82.0217 43.6634 80.8217 44.5301 79.3284 45.1167C77.8351 45.6767 76.1951 45.9567 74.4084 45.9567C72.7551 45.9567 71.4351 45.7967 70.4484 45.4767C69.4617 45.1567 68.6351 44.8234 67.9684 44.4767C67.3817 44.1034 66.9284 43.9167 66.6084 43.9167C66.3417 43.9167 66.1417 44.0634 66.0084 44.3567C65.9017 44.6501 65.8084 45.0901 65.7284 45.6767H64.8084C64.8617 45.0367 64.8884 44.2901 64.8884 43.4367C64.9151 42.5834 64.9284 41.4767 64.9284 40.1167C64.9551 38.7301 64.9684 36.9834 64.9684 34.8767H65.8884C65.9951 36.6367 66.2884 38.2901 66.7684 39.8367C67.2751 41.3567 68.0351 42.5834 69.0484 43.5167C70.0884 44.4501 71.4617 44.9167 73.1684 44.9167C74.1017 44.9167 74.9284 44.7567 75.6484 44.4367C76.3951 44.0901 76.9951 43.5834 77.4484 42.9167C77.9017 42.2501 78.1284 41.4234 78.1284 40.4367C78.1284 39.3167 77.8617 38.3434 77.3284 37.5167C76.8217 36.6901 76.1151 35.9167 75.2084 35.1967C74.3284 34.4767 73.3017 33.7434 72.1284 32.9967C70.8751 32.1701 69.7017 31.3434 68.6084 30.5167C67.5151 29.6901 66.6351 28.7434 65.9684 27.6767C65.3284 26.6101 65.0084 25.3434 65.0084 23.8767C65.0084 22.1967 65.4217 20.8234 66.2484 19.7567C67.1017 18.6634 68.2084 17.8634 69.5684 17.3567C70.9551 16.8234 72.4217 16.5567 73.9684 16.5567ZM97.2478 24.1567C99.1944 24.1567 100.901 24.5167 102.368 25.2367C103.834 25.9567 104.981 27.1167 105.808 28.7167C106.634 30.3167 107.048 32.4367 107.048 35.0767C107.048 37.7167 106.634 39.8367 105.808 41.4367C104.981 43.0101 103.834 44.1567 102.368 44.8767C100.901 45.5967 99.1944 45.9567 97.2478 45.9567C95.3544 45.9567 93.6611 45.5967 92.1678 44.8767C90.7011 44.1567 89.5411 43.0101 88.6878 41.4367C87.8611 39.8367 87.4478 37.7167 87.4478 35.0767C87.4478 32.4367 87.8611 30.3167 88.6878 28.7167C89.5411 27.1167 90.7011 25.9567 92.1678 25.2367C93.6611 24.5167 95.3544 24.1567 97.2478 24.1567ZM97.2478 24.9567C96.1811 24.9567 95.2878 25.7567 94.5678 27.3567C93.8478 28.9301 93.4878 31.5034 93.4878 35.0767C93.4878 38.6501 93.8478 41.2234 94.5678 42.7967C95.2878 44.3701 96.1811 45.1567 97.2478 45.1567C98.3411 45.1567 99.2344 44.3701 99.9278 42.7967C100.648 41.2234 101.008 38.6501 101.008 35.0767C101.008 31.5034 100.648 28.9301 99.9278 27.3567C99.2344 25.7567 98.3411 24.9567 97.2478 24.9567ZM117.314 14.0767V41.6767C117.314 42.7967 117.501 43.5567 117.874 43.9567C118.274 44.3567 118.941 44.5567 119.874 44.5567V45.3967C119.368 45.3701 118.608 45.3434 117.594 45.3167C116.581 45.2634 115.554 45.2367 114.514 45.2367C113.474 45.2367 112.421 45.2634 111.354 45.3167C110.314 45.3434 109.528 45.3701 108.994 45.3967V44.5567C109.928 44.5567 110.581 44.3567 110.954 43.9567C111.354 43.5567 111.554 42.7967 111.554 41.6767V18.8767C111.554 17.6767 111.368 16.7967 110.994 16.2367C110.648 15.6501 109.981 15.3567 108.994 15.3567V14.5167C109.848 14.5967 110.674 14.6367 111.474 14.6367C112.568 14.6367 113.608 14.5967 114.594 14.5167C115.581 14.4101 116.488 14.2634 117.314 14.0767ZM121.976 17.0767C122.643 17.1034 123.536 17.1301 124.656 17.1567C125.803 17.1834 126.936 17.1967 128.056 17.1967C129.336 17.1967 130.576 17.1834 131.776 17.1567C132.976 17.1301 133.83 17.1167 134.336 17.1167C138.043 17.1167 140.816 17.8501 142.656 19.3167C144.496 20.7834 145.416 22.6767 145.416 24.9967C145.416 25.9567 145.23 26.9701 144.856 28.0367C144.483 29.0767 143.843 30.0501 142.936 30.9567C142.056 31.8367 140.843 32.5567 139.296 33.1167C137.75 33.6767 135.803 33.9567 133.456 33.9567H129.376V33.1567H133.056C134.63 33.1567 135.816 32.7967 136.616 32.0767C137.443 31.3567 138.003 30.4101 138.296 29.2367C138.616 28.0634 138.776 26.7967 138.776 25.4367C138.776 22.9034 138.403 21.0101 137.656 19.7567C136.91 18.5034 135.63 17.8767 133.816 17.8767C132.776 17.8767 132.096 18.1034 131.776 18.5567C131.483 19.0101 131.336 19.9301 131.336 21.3167V40.9167C131.336 41.9567 131.443 42.7301 131.656 43.2367C131.87 43.7434 132.283 44.0767 132.896 44.2367C133.51 44.3967 134.416 44.4901 135.616 44.5167V45.3967C134.79 45.3701 133.723 45.3434 132.416 45.3167C131.11 45.2901 129.736 45.2767 128.296 45.2767C127.15 45.2767 126.03 45.2901 124.936 45.3167C123.843 45.3434 122.856 45.3701 121.976 45.3967V44.5967C122.83 44.5434 123.47 44.4367 123.896 44.2767C124.323 44.1167 124.603 43.7967 124.736 43.3167C124.896 42.8367 124.976 42.1167 124.976 41.1567V21.3167C124.976 20.3301 124.896 19.6101 124.736 19.1567C124.603 18.6767 124.31 18.3567 123.856 18.1967C123.43 18.0101 122.803 17.9034 121.976 17.8767V17.0767ZM154.971 14.0767V41.6767C154.971 42.7967 155.157 43.5567 155.531 43.9567C155.931 44.3567 156.597 44.5567 157.531 44.5567V45.3967C157.024 45.3701 156.264 45.3434 155.251 45.3167C154.237 45.2634 153.211 45.2367 152.171 45.2367C151.131 45.2367 150.077 45.2634 149.011 45.3167C147.971 45.3434 147.184 45.3701 146.651 45.3967V44.5567C147.584 44.5567 148.237 44.3567 148.611 43.9567C149.011 43.5567 149.211 42.7967 149.211 41.6767V18.8767C149.211 17.6767 149.024 16.7967 148.651 16.2367C148.304 15.6501 147.637 15.3567 146.651 15.3567V14.5167C147.504 14.5967 148.331 14.6367 149.131 14.6367C150.224 14.6367 151.264 14.5967 152.251 14.5167C153.237 14.4101 154.144 14.2634 154.971 14.0767ZM164.752 45.6767C163.552 45.6767 162.552 45.4501 161.752 44.9967C160.952 44.5434 160.366 43.9434 159.992 43.1967C159.619 42.4234 159.432 41.5834 159.432 40.6767C159.432 39.5301 159.686 38.5967 160.192 37.8767C160.726 37.1567 161.406 36.5701 162.232 36.1167C163.059 35.6634 163.926 35.2901 164.832 34.9967C165.766 34.7034 166.646 34.4234 167.472 34.1567C168.326 33.8634 169.006 33.5301 169.512 33.1567C170.046 32.7567 170.312 32.2501 170.312 31.6367V28.5167C170.312 27.8234 170.192 27.2101 169.952 26.6767C169.739 26.1167 169.392 25.6901 168.912 25.3967C168.459 25.1034 167.859 24.9567 167.112 24.9567C166.579 24.9567 166.046 25.0367 165.512 25.1967C164.979 25.3301 164.539 25.5701 164.192 25.9167C164.939 26.1834 165.512 26.5967 165.912 27.1567C166.339 27.6901 166.552 28.3034 166.552 28.9967C166.552 29.9034 166.232 30.6234 165.592 31.1567C164.979 31.6901 164.246 31.9567 163.392 31.9567C162.432 31.9567 161.699 31.6634 161.192 31.0767C160.712 30.4634 160.472 29.7301 160.472 28.8767C160.472 28.1034 160.659 27.4634 161.032 26.9567C161.432 26.4501 161.979 25.9701 162.672 25.5167C163.419 25.0901 164.312 24.7567 165.352 24.5167C166.419 24.2767 167.566 24.1567 168.792 24.1567C170.019 24.1567 171.126 24.2901 172.112 24.5567C173.099 24.7967 173.926 25.2501 174.592 25.9167C175.206 26.5301 175.606 27.2901 175.792 28.1967C175.979 29.0767 176.072 30.1967 176.072 31.5567V42.4367C176.072 43.1034 176.139 43.5701 176.272 43.8367C176.406 44.0767 176.632 44.1967 176.952 44.1967C177.192 44.1967 177.419 44.1301 177.632 43.9967C177.872 43.8634 178.126 43.7034 178.392 43.5167L178.792 44.1967C178.232 44.6767 177.579 45.0501 176.832 45.3167C176.112 45.5567 175.299 45.6767 174.392 45.6767C173.406 45.6767 172.619 45.5434 172.032 45.2767C171.446 44.9834 171.019 44.5967 170.752 44.1167C170.512 43.6367 170.392 43.0767 170.392 42.4367C169.752 43.4501 168.979 44.2501 168.072 44.8367C167.166 45.3967 166.059 45.6767 164.752 45.6767ZM167.592 43.1167C168.126 43.1167 168.606 42.9967 169.032 42.7567C169.486 42.4901 169.912 42.0634 170.312 41.4767V33.2767C170.072 33.6767 169.739 34.0367 169.312 34.3567C168.886 34.6767 168.432 35.0101 167.952 35.3567C167.472 35.6767 167.006 36.0367 166.552 36.4367C166.126 36.8367 165.779 37.3301 165.512 37.9167C165.246 38.5034 165.112 39.2101 165.112 40.0367C165.112 41.0767 165.339 41.8501 165.792 42.3567C166.246 42.8634 166.846 43.1167 167.592 43.1167ZM194.816 24.1567C195.936 24.1567 196.842 24.3034 197.536 24.5967C198.256 24.8634 198.816 25.2367 199.216 25.7167C199.642 26.2234 199.949 26.8767 200.136 27.6767C200.349 28.4767 200.456 29.5567 200.456 30.9167V41.6767C200.456 42.7967 200.642 43.5567 201.016 43.9567C201.416 44.3567 202.082 44.5567 203.016 44.5567V45.3967C202.509 45.3701 201.749 45.3434 200.736 45.3167C199.722 45.2634 198.722 45.2367 197.736 45.2367C196.722 45.2367 195.722 45.2634 194.736 45.3167C193.776 45.3434 193.042 45.3701 192.536 45.3967V44.5567C193.336 44.5567 193.896 44.3567 194.216 43.9567C194.536 43.5567 194.696 42.7967 194.696 41.6767V29.2367C194.696 28.5701 194.629 27.9967 194.496 27.5167C194.362 27.0101 194.122 26.6234 193.776 26.3567C193.429 26.0634 192.909 25.9167 192.216 25.9167C191.496 25.9167 190.829 26.1167 190.216 26.5167C189.629 26.9167 189.149 27.4767 188.776 28.1967C188.429 28.8901 188.256 29.6767 188.256 30.5567V41.6767C188.256 42.7967 188.416 43.5567 188.736 43.9567C189.082 44.3567 189.642 44.5567 190.416 44.5567V45.3967C189.936 45.3701 189.229 45.3434 188.296 45.3167C187.389 45.2634 186.442 45.2367 185.456 45.2367C184.442 45.2367 183.402 45.2634 182.336 45.3167C181.269 45.3434 180.469 45.3701 179.936 45.3967V44.5567C180.869 44.5567 181.522 44.3567 181.896 43.9567C182.296 43.5567 182.496 42.7967 182.496 41.6767V29.0767C182.496 27.8767 182.309 26.9967 181.936 26.4367C181.589 25.8501 180.922 25.5567 179.936 25.5567V24.7167C180.789 24.7967 181.616 24.8367 182.416 24.8367C183.536 24.8367 184.576 24.7967 185.536 24.7167C186.522 24.6101 187.429 24.4634 188.256 24.2767V27.8767C188.922 26.5167 189.829 25.5567 190.976 24.9967C192.122 24.4367 193.402 24.1567 194.816 24.1567ZM212.626 18.1567V24.7167H217.346V25.5167H212.626V41.6767C212.626 42.4767 212.773 43.0501 213.066 43.3967C213.359 43.7167 213.799 43.8767 214.386 43.8767C214.866 43.8767 215.346 43.7034 215.826 43.3567C216.306 42.9834 216.733 42.3567 217.106 41.4767L217.786 41.8367C217.359 43.0367 216.706 44.0234 215.826 44.7967C214.973 45.5701 213.799 45.9567 212.306 45.9567C211.426 45.9567 210.653 45.8367 209.986 45.5967C209.319 45.3834 208.759 45.0501 208.306 44.5967C207.719 44.0101 207.333 43.2901 207.146 42.4367C206.959 41.5567 206.866 40.4234 206.866 39.0367V25.5167H203.506V24.7167H206.866V19.4367C207.986 19.4367 209.013 19.3434 209.946 19.1567C210.906 18.9434 211.799 18.6101 212.626 18.1567Z" fill="#182625"/>
</svg>
